# Blender v2.92.0 OBJ File: 'boat01.blend'
# www.blender.org
mtllib boat01_windows.mtl
o Window_Cube.003
v -1.162673 2.806243 5.609775
v 1.625379 1.762045 7.100120
v -1.613129 1.773495 7.166898
v -1.553032 1.759943 6.857671
v 1.078234 2.806243 5.602083
v -1.186256 2.813683 5.693230
v 1.095598 2.813684 5.700529
v 1.539708 1.758184 6.806891
vt 0.000000 0.132464
vt 0.525394 0.000000
vt 0.525394 0.946861
vt 0.011481 0.799381
vt 1.000000 0.000000
vt 1.000000 0.904166
vt 0.525394 0.784286
vt 0.531627 0.129269
vn 0.0080 0.8086 0.5884
vn -0.0074 -0.7606 -0.6492
usemtl None
s off
f 6/1/1 3/2/1 2/3/1 7/4/1
f 8/5/2 4/6/2 1/7/2 5/8/2
