{
    "asset" : {
        "generator" : "Khronos glTF Blender I/O v1.5.17",
        "version" : "2.0"
    },
    "scene" : 0,
    "scenes" : [
        {
            "name" : "Scene",
            "nodes" : [
                12
            ]
        }
    ],
    "nodes" : [
        {
            "name" : "Bone.002",
            "rotation" : [
                -1.900237737276797e-15,
                -0.9635760188102722,
                6.846618981666292e-15,
                0.2674347758293152
            ],
            "scale" : [
                1.0000001192092896,
                0.9999999403953552,
                1.0000001192092896
            ],
            "translation" : [
                1.106122482497085e-08,
                0.5744701623916626,
                -6.3848295539514766e-09
            ]
        },
        {
            "children" : [
                0
            ],
            "name" : "Bone.001",
            "rotation" : [
                -1.1098624241867583e-07,
                -5.760116295050466e-08,
                0.7071068286895752,
                0.7071068286895752
            ],
            "scale" : [
                0.9999999403953552,
                1,
                0.9999999403953552
            ],
            "translation" : [
                8.470329472543003e-22,
                0.5237113833427429,
                2.0194836766245472e-28
            ]
        },
        {
            "name" : "Bone.004",
            "rotation" : [
                -3.9531887407285305e-22,
                1.4210853868169056e-14,
                -3.105853173809213e-22,
                1
            ],
            "scale" : [
                0.9999999403953552,
                1,
                0.9999999403953552
            ],
            "translation" : [
                -1.4901161193847656e-08,
                0.5549313426017761,
                0
            ]
        },
        {
            "children" : [
                2
            ],
            "name" : "Bone.003",
            "rotation" : [
                2.6833544097826234e-07,
                9.974804271450921e-08,
                -0.7071068286895752,
                0.7071068286895752
            ],
            "scale" : [
                0.9999999403953552,
                1,
                0.9999999403953552
            ],
            "translation" : [
                0,
                0.5237113833427429,
                0
            ]
        },
        {
            "name" : "Bone.006",
            "rotation" : [
                -3.5527121964928432e-15,
                0,
                -3.0292258760486853e-28,
                1
            ],
            "scale" : [
                1,
                0.9999999403953552,
                0.9999999403953552
            ],
            "translation" : [
                0,
                0.13497641682624817,
                0
            ]
        },
        {
            "children" : [
                4
            ],
            "name" : "Bone.005",
            "rotation" : [
                -3.5527121964928432e-15,
                1.7763568394002505e-14,
                -3.0292258760486853e-28,
                1
            ],
            "scale" : [
                1,
                0.9999999403953552,
                0.9999999403953552
            ],
            "translation" : [
                0,
                0.5237113833427429,
                0
            ]
        },
        {
            "children" : [
                1,
                3,
                5
            ],
            "name" : "Bone",
            "rotation" : [
                -2.9802322387695312e-08,
                1.1920927533992653e-07,
                4.235164736271502e-22,
                1
            ],
            "scale" : [
                1,
                0.9999998807907104,
                0.9999998807907104
            ],
            "translation" : [
                0,
                -0.33944445848464966,
                0
            ]
        },
        {
            "name" : "Bone.010",
            "rotation" : [
                -0.023790286853909492,
                0.0016645350260660052,
                0.008828760124742985,
                0.9996766448020935
            ],
            "scale" : [
                1,
                1.0000001192092896,
                0.9999999403953552
            ],
            "translation" : [
                2.5184072605100027e-09,
                0.44990769028663635,
                -4.5674917181770525e-09
            ]
        },
        {
            "children" : [
                7
            ],
            "name" : "Bone.007",
            "rotation" : [
                -0.7381511330604553,
                0.2140175700187683,
                0.6158061623573303,
                0.17352868616580963
            ],
            "scale" : [
                0.9999999403953552,
                1,
                1
            ],
            "translation" : [
                5.586391904621735e-10,
                -0.33944445848464966,
                -3.6634217881470477e-09
            ]
        },
        {
            "name" : "Bone.009",
            "rotation" : [
                -0.09045978635549545,
                0.0011690802639350295,
                0.028065478429198265,
                0.9955039024353027
            ],
            "scale" : [
                1,
                0.9999998211860657,
                0.9999998807907104
            ],
            "translation" : [
                8.35363866968919e-09,
                0.4418220520019531,
                4.8294889865019286e-08
            ]
        },
        {
            "children" : [
                9
            ],
            "name" : "Bone.008",
            "rotation" : [
                -0.7523234486579895,
                -0.22223079204559326,
                -0.595026969909668,
                0.17483104765415192
            ],
            "scale" : [
                1.0000001192092896,
                1.0000001192092896,
                1
            ],
            "translation" : [
                7.194017603850966e-10,
                -0.33944445848464966,
                3.62474850135186e-09
            ]
        },
        {
            "mesh" : 0,
            "name" : "Cube",
            "skin" : 0
        },
        {
            "children" : [
                11,
                6,
                8,
                10
            ],
            "name" : "Armature"
        }
    ],
    "materials" : [
        {
            "doubleSided" : true,
            "name" : "Material",
            "pbrMetallicRoughness" : {
                "baseColorFactor" : [
                    0.800000011920929,
                    0.800000011920929,
                    0.800000011920929,
                    1
                ],
                "metallicFactor" : 0,
                "roughnessFactor" : 0.4000000059604645
            }
        }
    ],
    "meshes" : [
        {
            "name" : "Cube",
            "primitives" : [
                {
                    "attributes" : {
                        "POSITION" : 0,
                        "NORMAL" : 1,
                        "TEXCOORD_0" : 2,
                        "JOINTS_0" : 3,
                        "WEIGHTS_0" : 4
                    },
                    "indices" : 5,
                    "material" : 0
                }
            ]
        }
    ],
    "skins" : [
        {
            "inverseBindMatrices" : 6,
            "joints" : [
                6,
                1,
                0,
                3,
                2,
                5,
                4,
                8,
                7,
                10,
                9
            ],
            "name" : "Armature"
        }
    ],
    "accessors" : [
        {
            "bufferView" : 0,
            "componentType" : 5126,
            "count" : 249,
            "max" : [
                1,
                0.6266757249832153,
                0.1024109274148941
            ],
            "min" : [
                -1,
                -1,
                -0.1024109274148941
            ],
            "type" : "VEC3"
        },
        {
            "bufferView" : 1,
            "componentType" : 5126,
            "count" : 249,
            "type" : "VEC3"
        },
        {
            "bufferView" : 2,
            "componentType" : 5126,
            "count" : 249,
            "type" : "VEC2"
        },
        {
            "bufferView" : 3,
            "componentType" : 5121,
            "count" : 249,
            "type" : "VEC4"
        },
        {
            "bufferView" : 4,
            "componentType" : 5126,
            "count" : 249,
            "type" : "VEC4"
        },
        {
            "bufferView" : 5,
            "componentType" : 5123,
            "count" : 468,
            "type" : "SCALAR"
        },
        {
            "bufferView" : 6,
            "componentType" : 5126,
            "count" : 11,
            "type" : "MAT4"
        }
    ],
    "bufferViews" : [
        {
            "buffer" : 0,
            "byteLength" : 2988,
            "byteOffset" : 0
        },
        {
            "buffer" : 0,
            "byteLength" : 2988,
            "byteOffset" : 2988
        },
        {
            "buffer" : 0,
            "byteLength" : 1992,
            "byteOffset" : 5976
        },
        {
            "buffer" : 0,
            "byteLength" : 996,
            "byteOffset" : 7968
        },
        {
            "buffer" : 0,
            "byteLength" : 3984,
            "byteOffset" : 8964
        },
        {
            "buffer" : 0,
            "byteLength" : 936,
            "byteOffset" : 12948
        },
        {
            "buffer" : 0,
            "byteLength" : 704,
            "byteOffset" : 13884
        }
    ],
    "buffers" : [
        {
            "byteLength" : 14588,
            "uri" : "humanoid_base01_rigtest.bin"
        }
    ]
}
