v 0.008637786 0.7302321 0.01731133
v 0.3125807 0.03179145 -0.1764069
v 0.3844923 -0.005597949 0.032547
v 0.1854509 -0.01535034 -0.3051701
v 0.004676342 0.01896918 -0.3644137
v -0.1484482 0.08947849 -0.2797282
v -0.3078182 0.01987481 -0.1883545
v -0.3473668 0.04624164 -0.005984068
v -0.2836059 0.1013578 0.1592076
v -0.1811871 0.03646421 0.2961974
v -0.01823276 0.01917529 0.3639898
v 0.1545985 0.06135118 0.2838025
v 0.3122433 0.01123512 0.1796165
v 0.007047355 0.6317008 0.01499629
v 0.002359748 0.8214389 -0.006526828
v 0.2038022 0.2790679 -0.1590365
v 0.287113 0.2177712 0.003611684
v 0.1372318 0.2061394 -0.2694324
v 0.0003933311 0.3047231 -0.2729867
v -0.1347326 0.2359186 -0.2519068
v -0.2292501 0.308165 -0.1511177
v -0.2875772 0.2417676 -0.01987004
v -0.2386018 0.3050464 0.1086954
v -0.1764286 0.2285522 0.2297735
v -0.01831019 0.2984864 0.2466395
v 0.1391469 0.2237076 0.240576
v 0.2263354 0.2735999 0.1547651
v 0.0007420182 0.747177 -0.007477164
v 0.00411284 0.852326 -0.007169366
v 0.184997 0.3958914 -0.08823311
v 0.1843929 0.4521345 0.01838076
v 0.1110769 0.4557647 -0.1640282
v 0.004714966 0.4268931 -0.2497163
v -0.07698298 0.4407248 -0.2008495
v -0.1647927 0.4655963 -0.1305304
v -0.2311748 0.4244194 -0.03366899
v -0.192452 0.4655648 0.0641396
v -0.1315148 0.4845879 0.1381408
v -0.03658867 0.4400281 0.1937003
v 0.06037676 0.4761709 0.1564994
v 0.1933681 0.4336314 0.1200812
v 0.002075255 0.7961851 -0.007468462
v 0.0213086 0.6575567 -0.02879083
v 0.4422662 -0.2936963 -0.213003
v 0.4849259 -0.2488813 0.0829792
v 0.2897892 -0.2526795 -0.327978
v 0.0837363 -0.2504721 -0.4309243
v -0.1460835 -0.2431606 -0.4171374
v -0.3380899 -0.2327042 -0.2903115
v -0.4616058 -0.261431 -0.08692992
v -0.4368788 -0.2234303 0.1437161
v -0.2971307 -0.1906186 0.3268948
v -0.08366442 -0.1860286 0.4586513
v 0.1566128 -0.1498522 0.3859897
v 0.3401845 -0.2041382 0.2783248
v 0.0175544 0.5305594 -0.02400362
v 0.03912359 0.6064104 0.04751968
v 0.5397902 -0.5829979 -0.2124047
v 0.5626782 -0.5420835 0.08277929
v 0.3363276 -0.5315201 -0.4310925
v 0.06959534 -0.538348 -0.5530097
v -0.2268056 -0.5284241 -0.5123628
v -0.4343586 -0.4575655 -0.3044035
v -0.5765404 -0.5263398 -0.05183196
v -0.5563455 -0.5920533 0.2312205
v -0.3529948 -0.546973 0.4810929
v -0.07876456 -0.5987858 0.6028678
v 0.2038206 -0.5588571 0.5320005
v 0.4535822 -0.6614741 0.3680043
v 0.03306711 0.4413435 0.04366684
v -0.0159086 0.4078718 0.005358458
v 0.6179667 -1.009826 -0.3408391
v 0.7289829 -1.102101 0.02388215
v 0.3724623 -1.097998 -0.6401248
v 0.002493918 -1.117398 -0.7490537
v -0.3625784 -1.038122 -0.6475539
v -0.651538 -1.079801 -0.392047
v -0.7603424 -1.082158 -0.02208126
v -0.6593535 -1.044437 0.3432176
v -0.4035749 -1.106198 0.6318028
v -0.04288393 -1.05661 0.7106881
v 0.3412111 -1.126138 0.6497231
v 0.5416319 -1.004089 0.3325591
v 0.0141536 -0.9450189 0.007551074
v -0.04376745 -1.270546 -0.07593095
v -0.1065001 -1.73384 -0.03493214
v -0.04896581 -1.73384 -0.08740795
v -0.1096798 -1.270546 0.03994179
v -0.1222017 -1.73384 0.04133952
v -0.07139784 -1.270546 0.09441662
v -0.01984608 -1.270546 0.1384349
v -0.0994395 -1.73384 0.1216401
v 0.04980552 -1.270546 0.1306623
v -0.02238667 -1.73384 0.1601424
v 0.1015864 -1.270546 0.0834341
v 0.04563785 -1.73384 0.1327739
v 0.1157179 -1.270546 0.0147897
v 0.1219045 -1.73384 0.09903038
v 0.08680218 -1.270546 -0.04905117
v 0.1563386 -1.724473 0.01339257
v 0.02588427 -1.270546 -0.07433736
v 0.02842486 -1.73384 -0.09604406
v 0.01826245 -0.4038395 -0.04668045
v 0.05887449 -0.4038395 -0.023579
v 0.07815164 -0.4038396 0.01898146
v 0.06873059 -0.4038396 0.06474459
v 0.03421009 -0.4038396 0.09623015
v -0.01222438 -0.4038396 0.1014117
v -0.0528363 -0.4038396 0.07831049
v -0.07211345 -0.4038395 0.03575003
v -0.06269252 -0.4038395 -0.0100131
v -0.0281719 -0.4038395 -0.04149878
v 0.07283843 -0.8578285 -0.0363152
v 0.02207333 -0.8578285 -0.06519186
v 0.0969348 -0.8578285 0.01688564
v 0.08515859 -0.8578285 0.07408953
v 0.0420078 -0.8578285 0.1134462
v -0.01603532 -0.8578285 0.1199235
v -0.06680024 -0.8578285 0.09104669
v -0.09089661 -0.8578285 0.03784585
v -0.0791204 -0.8578285 -0.01935804
v -0.03596973 -0.8578285 -0.05871487
v 0.05887455 -0.5138972 -0.023579
v 0.01826245 -0.5138972 -0.04668045
v 0.0781517 -0.5138974 0.01898146
v 0.06873059 -0.5138974 0.06474459
v 0.03421009 -0.5138974 0.09623015
v -0.01222438 -0.5138974 0.1014117
v -0.0528363 -0.5138974 0.07831049
v -0.07211345 -0.5138972 0.03575003
v -0.06269252 -0.5138972 -0.0100131
v -0.0281719 -0.5138972 -0.04149878
v 0.1335763 -1.724473 -0.08564031
v -0.1049144 -1.270546 -0.03806889
v 0.0257262 0.4658548 -0.09443414
v 0.5610158 -0.8237757 -0.299656
v 0.6543586 -0.883234 0.03020704
v 0.3366055 -0.9093831 -0.5671439
v -0.006542623 -0.8772529 -0.6472621
v -0.3063968 -0.8494059 -0.5790651
v -0.5657139 -0.8633093 -0.3532569
v -0.6654482 -0.8384448 -0.0269953
v -0.5782709 -0.7827103 0.2946112
v -0.3552627 -0.8232156 0.5565813
v -0.03507012 -0.7814125 0.6267323
v 0.3045845 -0.8547657 0.5813715
v 0.4876146 -0.7721206 0.2947688
v 0.02394211 -0.7309158 -0.00201261
vn 0.8704125 0.4400256 -0.2208162
vn 0.5545709 0.4376375 -0.7077603
vn 0.3540041 0.4407329 -0.8248854
vn -0.2594732 0.4578121 -0.8503424
vn -0.5840936 0.454846 -0.6722722
vn -0.8551123 0.4536196 -0.2510228
vn -0.873883 0.4484481 0.1876778
vn -0.6111715 0.4334469 0.6622637
vn -0.3085425 0.4262549 0.8503579
vn 0.300092 0.4088567 0.8618476
vn 0.5901693 0.4066333 0.6973879
vn 0.8285869 0.4306411 0.3577597
vn -0.8450655 -0.4949259 0.2022694
vn -0.5243309 -0.4893719 0.6968446
vn -0.3540644 -0.491361 0.7957405
vn 0.2216257 -0.5139827 0.828676
vn 0.5845337 -0.5104407 0.6306908
vn 0.8238136 -0.5077373 0.2520597
vn 0.8472424 -0.5072332 -0.1577814
vn 0.5697509 -0.491375 -0.6587372
vn 0.2923077 -0.4825044 -0.8256791
vn -0.2757251 -0.467241 -0.8400367
vn -0.5863007 -0.4644835 -0.6637069
vn -0.8050717 -0.4861689 -0.3398522
vn 0.8669513 0.4040446 -0.2917937
vn 0.6290684 0.4179448 -0.6554352
vn 0.3324775 0.4312539 -0.8387365
vn -0.3490746 0.4305454 -0.8323328
vn -0.482184 0.4322422 -0.7620143
vn -0.8803374 0.4441554 -0.1665307
vn -0.8888897 0.4418109 0.121155
vn -0.6532847 0.4419966 0.614702
vn -0.2806218 0.4271894 0.859512
vn 0.2316344 0.4164516 0.8791552
vn 0.4988831 0.4261447 0.7546633
vn 0.884785 0.4207227 0.2003703
vn -0.8505772 -0.4545643 0.2643674
vn -0.5851237 -0.4681982 0.6621337
vn -0.3656161 -0.4787126 0.7982227
vn 0.3680729 -0.4786392 0.7971368
vn 0.4418852 -0.4795515 0.7581346
vn 0.8595695 -0.4935993 0.1322881
vn 0.8661727 -0.4919692 -0.08781382
vn 0.6074843 -0.4925931 -0.6231493
vn 0.3001152 -0.4797049 -0.8245086
vn -0.2549786 -0.4682959 -0.8459818
vn -0.4628949 -0.4765588 -0.747409
vn -0.8646854 -0.471369 -0.1735821
vn 0.8978102 0.3915852 -0.2014903
vn 0.793877 0.3964924 -0.461035
vn 0.4919093 0.4317393 -0.7560601
vn -0.3996706 0.4535761 -0.7965755
vn -0.4774029 0.4493683 -0.7550861
vn -0.809339 0.4670742 -0.3561071
vn -0.8705522 0.4695686 0.1471209
vn -0.7382798 0.4652563 0.488344
vn -0.2893335 0.4421807 0.8489774
vn 0.1867629 0.4153134 0.8903003
vn 0.3617066 0.4169276 0.8338705
vn 0.9118798 0.4104168 -0.005804144
vn -0.8672317 -0.4423937 0.2284671
vn -0.7908953 -0.4459628 0.4190488
vn -0.4631992 -0.488421 0.7395213
vn 0.3780988 -0.5058892 0.7753178
vn 0.4495355 -0.5019587 0.7388881
vn 0.7916593 -0.5193722 0.3217583
vn 0.8450922 -0.5221202 -0.1149341
vn 0.7192661 -0.5223914 -0.4579996
vn 0.2529549 -0.4964817 -0.8303734
vn -0.156452 -0.4728158 -0.867161
vn -0.3706655 -0.4761206 -0.7974438
vn -0.8833534 -0.4686511 -0.007308333
vn 0.8831262 0.4280077 -0.192089
vn 0.6175489 0.4039722 -0.6748632
vn 0.414489 0.3921825 -0.821214
vn -0.04207315 0.4021532 -0.9146055
vn -0.483922 0.4207645 -0.7673182
vn -0.7926646 0.4430294 -0.4188177
vn -0.885551 0.4641756 0.01846106
vn -0.7378109 0.4772039 0.4774015
vn -0.4667715 0.4852887 0.7393374
vn 0.1888482 0.4735808 0.8602663
vn 0.5468787 0.4532543 0.7039068
vn 0.764325 0.4481064 0.46369
vn -0.8526085 -0.4843125 0.1962158
vn -0.6098537 -0.4619026 0.6439914
vn -0.4030907 -0.4494855 0.7971707
vn 0.03863603 -0.4591316 0.887528
vn 0.4661278 -0.4771378 0.7450268
vn 0.7706798 -0.4978669 0.3977205
vn 0.8558087 -0.5172517 -0.006527799
vn 0.7163945 -0.5321451 -0.4512216
vn 0.4498788 -0.5417638 -0.7100011
vn -0.1701013 -0.5338614 -0.8282862
vn -0.5421525 -0.5121905 -0.6661322
vn -0.7443643 -0.5061284 -0.4356103
vn 0.9040464 0.4082309 -0.1266818
vn 0.711104 0.4221923 -0.5622146
vn 0.3639038 0.4402762 -0.8208114
vn -0.1055265 0.4597515 -0.8817558
vn -0.5390076 0.4708675 -0.6983946
vn -0.8166209 0.4728701 -0.3309448
vn -0.8721369 0.4592089 0.168834
vn -0.7327508 0.4432228 0.5163627
vn -0.2996918 0.4232902 0.8549916
vn 0.1696826 0.3986933 0.9012502
vn 0.6115689 0.3758936 0.6961953
vn 0.8002104 0.3790531 0.4647391
vn -0.8748804 -0.4658884 0.132412
vn -0.6962845 -0.4782401 0.5352334
vn -0.3502533 -0.4967062 0.7941071
vn 0.09952768 -0.5148725 0.8514699
vn 0.5048642 -0.5271893 0.6835086
vn 0.7928163 -0.5292691 0.3021871
vn 0.8403366 -0.5117415 -0.1787611
vn 0.7147777 -0.4969842 -0.4920365
vn 0.2795428 -0.4777947 -0.8328076
vn -0.1556656 -0.454721 -0.8769251
vn -0.6123161 -0.428826 -0.6642121
vn -0.7671264 -0.4319865 -0.4742418
vn 0.8860902 0.4351629 -0.1596166
vn 0.6275803 0.4378124 -0.6437882
vn 0.2335577 0.4333446 -0.8704385
vn -0.151688 0.4367424 -0.8867056
vn -0.6296154 0.4400482 -0.6402672
vn -0.8639975 0.4362897 -0.2513158
vn -0.8783296 0.435178 0.1978821
vn -0.6283239 0.4293062 0.6487722
vn -0.2487476 0.4239964 0.870834
vn 0.2159806 0.4204462 0.8812363
vn 0.6910788 0.4107103 0.5947497
vn 0.8304472 0.4142413 0.3725072
vn -0.2071836 -0.9615603 -0.1802129
vn 0.04112647 -0.9670686 0.251171
vn -0.01434024 -0.9748666 0.2223273
vn -0.1476149 -0.9638383 0.2218685
vn 0.1759945 -0.9836347 0.03858363
vn 0.1725347 -0.9839991 0.04447028
vn 0.1720996 -0.9835989 0.05398995
vn 0.02761493 -0.9721953 -0.2325376
vn 0.1651386 -0.9760656 -0.1415104
vn -0.201525 -0.9647142 -0.1694523
vn 0.08526009 -0.9467593 -0.3104476
vn -0.2151349 -0.9608638 0.1745214
vn -0.6736566 0.02585583 -0.7385924
vn -0.979133 0.02585602 -0.20157
vn -0.8179431 0.02384169 0.5748053
vn -0.6470753 0.08369523 0.7578186
vn 0.1107876 0.04590911 0.9927834
vn 0.6738775 -0.002694565 0.7388384
vn 0.9782509 0.04968149 0.2013884
vn 0.9078131 0.08250311 -0.41118
vn 0.3829763 0.04532899 -0.9226456
vn -0.1108651 0.02585565 -0.9934993
vn 1.291828E-07 -1 -1.178252E-07
vn -1.291828E-07 1 1.178252E-07
vn 0.49397 0.04351046 -0.8683898
vn 0.910056 0.04351074 -0.4121958
vn 0.9785329 0.04351067 0.2014466
vn 0.6732416 0.04351078 0.7381415
vn 0.1107995 0.0435106 0.9928901
vn -0.4939684 0.04351074 0.8683908
vn -0.9100563 0.04351076 0.4121949
vn -0.9785329 0.04351069 -0.2014466
vn -0.6732437 0.04351072 -0.7381396
vn -0.1107972 0.04351094 -0.9928904
vn 0.4937611 0.05219133 -0.8680302
vn 0.9096777 0.05219116 -0.4120231
vn 0.9781259 0.05219169 0.2013614
vn 0.6729602 0.05219121 0.7378354
vn 0.1107549 0.05219176 0.9924766
vn -0.4937643 0.05219143 0.8680285
vn -0.9096778 0.05219113 0.4120229
vn -0.9781259 0.05219121 -0.2013612
vn -0.6729629 0.05219142 -0.737833
vn -0.1107498 0.05219097 -0.9924772
vn 0.4944367 3.329225E-09 -0.8692139
vn 0.9109183 6.306785E-08 -0.4125873
vn 0.9794604 3.630534E-09 0.2016379
vn 0.673882 -1.143428E-08 0.7388393
vn 0.1109025 -6.025585E-09 0.9938315
vn -0.4944354 7.97553E-09 0.8692146
vn -0.9109183 -4.507909E-08 0.4125873
vn -0.9794609 -2.492602E-08 -0.2016352
vn -0.6738821 7.750339E-09 -0.7388393
vn -0.1109025 1.046929E-08 -0.9938315
vn 0.9216254 0.08130563 0.3794686
vn 0.170405 -0.9845954 -0.0391669
vn 0.09019127 0.08924781 -0.9919177
vn 0.09300794 -0.9946674 -0.04456947
vn 0.9678189 0.1176577 -0.2224492
vn 0.404132 0.04847261 0.9134156
vn 0.3732566 0.0008706201 0.9277279
vn -0.4465512 0.04432101 0.89366
vn -0.9594525 0.0740536 0.2719696
vn 0.02284889 0.04691464 -0.9986377
vn 0.38326 0.0239991 -0.9233289
vn 0.02286829 0.02235894 -0.9994886
vn -0.5264425 -0.003954608 -0.8502018
vn -0.9981353 0.00300339 -0.06097153
vn -0.9960284 0.06500822 -0.06084289
vn -0.5251082 0.07126511 -0.8480467
vn -0.649295 0.01344208 0.7604182
vn -0.8180976 0.01380782 0.5749139
vn 0.8976649 0.401501 -0.1816452
vn 0.6478553 0.3744697 -0.6633675
vn 0.2439535 0.3641048 -0.8988408
vn -0.1717091 0.3784941 -0.9095376
vn -0.6127336 0.4048162 -0.6787354
vn -0.8509265 0.4357562 -0.2933276
vn -0.8696672 0.4688416 0.1544889
vn -0.6242862 0.4912609 0.607396
vn -0.2471289 0.4940238 0.8335876
vn 0.2172612 0.4806351 0.849581
vn 0.694771 0.4384596 0.5701289
vn 0.8363478 0.4220354 0.3498699
vn -0.2281295 -0.9674171 -0.1098236
vn 0.002905683 -0.9531137 0.3025988
vn -0.1428476 -0.9637558 0.2253205
vn -0.03978995 -0.9740548 0.2227872
vn 0.1522632 -0.9816952 0.1144135
vn 0.1487385 -0.9815354 0.1202706
vn 0.14822 -0.9804089 0.1297276
vn 0.006851182 -0.9873364 -0.1584924
vn 0.1433491 -0.9874788 -0.06585329
vn -0.2226525 -0.9698794 -0.09879187
vn 0.06584077 -0.9691723 -0.2374242
vn -0.2395261 -0.9397967 0.2437403
f 3//1 2//1 1//1
f 2//2 4//2 1//2
f 4//3 5//3 1//3
f 5//4 6//4 1//4
f 6//5 7//5 1//5
f 7//6 8//6 1//6
f 8//7 9//7 1//7
f 9//8 10//8 1//8
f 10//9 11//9 1//9
f 11//10 12//10 1//10
f 12//11 13//11 1//11
f 13//12 3//12 1//12
f 14//13 2//13 3//13
f 14//14 4//14 2//14
f 14//15 5//15 4//15
f 14//16 6//16 5//16
f 14//17 7//17 6//17
f 14//18 8//18 7//18
f 14//19 9//19 8//19
f 14//20 10//20 9//20
f 14//21 11//21 10//21
f 14//22 12//22 11//22
f 14//23 13//23 12//23
f 14//24 3//24 13//24
f 17//25 16//25 15//25
f 16//26 18//26 15//26
f 18//27 19//27 15//27
f 19//28 20//28 15//28
f 20//29 21//29 15//29
f 21//30 22//30 15//30
f 22//31 23//31 15//31
f 23//32 24//32 15//32
f 24//33 25//33 15//33
f 25//34 26//34 15//34
f 26//35 27//35 15//35
f 27//36 17//36 15//36
f 28//37 16//37 17//37
f 28//38 18//38 16//38
f 28//39 19//39 18//39
f 28//40 20//40 19//40
f 28//41 21//41 20//41
f 28//42 22//42 21//42
f 28//43 23//43 22//43
f 28//44 24//44 23//44
f 28//45 25//45 24//45
f 28//46 26//46 25//46
f 28//47 27//47 26//47
f 28//48 17//48 27//48
f 31//49 30//49 29//49
f 30//50 32//50 29//50
f 32//51 33//51 29//51
f 33//52 34//52 29//52
f 34//53 35//53 29//53
f 35//54 36//54 29//54
f 36//55 37//55 29//55
f 37//56 38//56 29//56
f 38//57 39//57 29//57
f 39//58 40//58 29//58
f 40//59 41//59 29//59
f 41//60 31//60 29//60
f 42//61 30//61 31//61
f 42//62 32//62 30//62
f 42//63 33//63 32//63
f 42//64 34//64 33//64
f 42//65 35//65 34//65
f 42//66 36//66 35//66
f 42//67 37//67 36//67
f 42//68 38//68 37//68
f 42//69 39//69 38//69
f 42//70 40//70 39//70
f 42//71 41//71 40//71
f 42//72 31//72 41//72
f 45//73 44//73 43//73
f 44//74 46//74 43//74
f 46//75 47//75 43//75
f 47//76 48//76 43//76
f 48//77 49//77 43//77
f 49//78 50//78 43//78
f 50//79 51//79 43//79
f 51//80 52//80 43//80
f 52//81 53//81 43//81
f 53//82 54//82 43//82
f 54//83 55//83 43//83
f 55//84 45//84 43//84
f 56//85 44//85 45//85
f 56//86 46//86 44//86
f 56//87 47//87 46//87
f 56//88 48//88 47//88
f 56//89 49//89 48//89
f 56//90 50//90 49//90
f 56//91 51//91 50//91
f 56//92 52//92 51//92
f 56//93 53//93 52//93
f 56//94 54//94 53//94
f 56//95 55//95 54//95
f 56//96 45//96 55//96
f 59//97 58//97 57//97
f 58//98 60//98 57//98
f 60//99 61//99 57//99
f 61//100 62//100 57//100
f 62//101 63//101 57//101
f 63//102 64//102 57//102
f 64//103 65//103 57//103
f 65//104 66//104 57//104
f 66//105 67//105 57//105
f 67//106 68//106 57//106
f 68//107 69//107 57//107
f 69//108 59//108 57//108
f 70//109 58//109 59//109
f 70//110 60//110 58//110
f 70//111 61//111 60//111
f 70//112 62//112 61//112
f 70//113 63//113 62//113
f 70//114 64//114 63//114
f 70//115 65//115 64//115
f 70//116 66//116 65//116
f 70//117 67//117 66//117
f 70//118 68//118 67//118
f 70//119 69//119 68//119
f 70//120 59//120 69//120
f 73//121 72//121 71//121
f 72//122 74//122 71//122
f 74//123 75//123 71//123
f 75//124 76//124 71//124
f 76//125 77//125 71//125
f 77//126 78//126 71//126
f 78//127 79//127 71//127
f 79//128 80//128 71//128
f 80//129 81//129 71//129
f 81//130 82//130 71//130
f 82//131 83//131 71//131
f 83//132 73//132 71//132
f 84//133 72//133 73//133
f 84//134 74//134 72//134
f 84//135 75//135 74//135
f 84//136 76//136 75//136
f 84//137 77//137 76//137
f 84//138 78//138 77//138
f 84//139 79//139 78//139
f 84//140 80//140 79//140
f 84//141 81//141 80//141
f 84//142 82//142 81//142
f 84//143 83//143 82//143
f 84//144 73//144 83//144
f 137//205 136//205 135//205
f 136//206 138//206 135//206
f 138//207 139//207 135//207
f 139//208 140//208 135//208
f 140//209 141//209 135//209
f 141//210 142//210 135//210
f 142//211 143//211 135//211
f 143//212 144//212 135//212
f 144//213 145//213 135//213
f 145//214 146//214 135//214
f 146//215 147//215 135//215
f 147//216 137//216 135//216
f 148//217 136//217 137//217
f 148//218 138//218 136//218
f 148//219 139//219 138//219
f 148//220 140//220 139//220
f 148//221 141//221 140//221
f 148//222 142//222 141//222
f 148//223 143//223 142//223
f 148//224 144//224 143//224
f 148//225 145//225 144//225
f 148//226 146//226 145//226
f 148//227 147//227 146//227
f 148//228 137//228 147//228
f 87//145 86//145 85//145
f 86//146 89//146 88//146
f 89//147 90//147 88//147
f 92//148 91//148 90//148
f 94//149 93//149 91//149
f 96//150 95//150 93//150
f 98//151 97//151 95//151
f 100//152 99//152 97//152
f 102//153 101//153 99//153
f 102//154 87//154 85//154
f 102//155 98//155 96//155 94//155 92//155 89//155 86//155 87//155
f 112//156 111//156 110//156 109//156 108//156 107//156 106//156 105//156 104//156 103//156
f 114//157 113//157 99//157
f 113//158 115//158 97//158 99//158
f 115//159 116//159 95//159 97//159
f 116//160 117//160 93//160 95//160
f 117//161 118//161 91//161 93//161
f 118//162 119//162 91//162
f 119//163 120//163 88//163
f 120//164 121//164 88//164
f 121//165 122//165 85//165
f 122//166 114//166 85//166
f 124//167 123//167 113//167 114//167
f 123//168 125//168 115//168 113//168
f 125//169 126//169 116//169 115//169
f 126//170 127//170 117//170 116//170
f 127//171 128//171 118//171 117//171
f 128//172 129//172 119//172 118//172
f 129//173 130//173 120//173 119//173
f 130//174 131//174 121//174 120//174
f 131//175 132//175 122//175 121//175
f 132//176 124//176 114//176 122//176
f 103//177 104//177 123//177 124//177
f 104//178 105//178 125//178 123//178
f 105//179 106//179 126//179 125//179
f 106//180 107//180 127//180 126//180
f 107//181 108//181 128//181 127//181
f 108//182 109//182 129//182 128//182
f 109//183 110//183 130//183 129//183
f 110//184 111//184 131//184 130//184
f 111//185 112//185 132//185 131//185
f 112//186 103//186 124//186 132//186
f 98//187 100//187 97//187
f 133//188 100//188 98//188
f 99//189 133//189 102//189
f 102//190 133//190 98//190
f 100//191 133//191 99//191
f 96//192 98//192 95//192
f 94//193 96//193 93//193
f 92//194 94//194 91//194
f 89//195 92//195 90//195
f 85//196 101//196 102//196
f 99//197 101//197 114//197
f 114//198 101//198 85//198
f 86//199 134//199 85//199
f 88//200 134//200 86//200
f 121//201 134//201 88//201
f 85//202 134//202 121//202
f 119//203 90//203 91//203
f 88//204 90//204 119//204
