# Blender v2.76 (sub 0) OBJ File: 'flame.blend'
# www.blender.org
mtllib flame.mtl
o Cone
v 0.000000 0.143000 -1.000000
v 0.000000 2.005324 0.000000
v 0.195090 0.143000 -0.980785
v 0.382683 0.143000 -0.923880
v 0.555570 0.143000 -0.831470
v 0.707107 0.143000 -0.707107
v 0.831470 0.143000 -0.555570
v 0.923880 0.143000 -0.382683
v 0.980785 0.143000 -0.195090
v 1.000000 0.143000 -0.000000
v 0.980785 0.143000 0.195090
v 0.923880 0.143000 0.382683
v 0.831470 0.143000 0.555570
v 0.707107 0.143000 0.707107
v 0.555570 0.143000 0.831470
v 0.382683 0.143000 0.923880
v 0.195090 0.143000 0.980785
v -0.000000 0.143000 1.000000
v -0.195091 0.143000 0.980785
v -0.382684 0.143000 0.923879
v -0.555571 0.143000 0.831469
v -0.707107 0.143000 0.707106
v -0.831470 0.143000 0.555570
v -0.923880 0.143000 0.382683
v -0.980785 0.143000 0.195089
v -1.000000 0.143000 -0.000001
v -0.980785 0.143000 -0.195091
v -0.923879 0.143000 -0.382684
v -0.831469 0.143000 -0.555571
v -0.707106 0.143000 -0.707108
v -0.555569 0.143000 -0.831470
v -0.382682 0.143000 -0.923880
v -0.195089 0.143000 -0.980786
v 0.286444 1.188748 -0.428524
v -0.000000 -0.659712 0.000000
v 0.097545 0.143000 -0.990393
v 0.441431 0.683503 -0.644728
v 0.306655 0.683503 -0.716766
v 0.008332 0.683503 -0.776107
v 0.288887 0.143000 -0.952332
v 0.160416 0.683503 -0.761128
v 0.469127 0.143000 -0.877675
v -0.143752 0.683503 -0.761128
v 0.631339 0.143000 -0.769288
v -0.289991 0.683503 -0.716767
v 0.769288 0.143000 -0.631338
v -0.424767 0.683503 -0.644728
v 0.877675 0.143000 -0.469127
v -0.542898 0.683503 -0.547780
v 0.952332 0.143000 -0.288887
v -0.639847 0.683503 -0.429649
v 0.990393 0.143000 -0.097545
v -0.711886 0.683503 -0.294874
v 0.990393 0.143000 0.097545
v -0.756247 0.683503 -0.148634
v 0.952332 0.143000 0.288887
v -0.771226 0.683503 0.003450
v 0.877675 0.143000 0.469127
v -0.756247 0.683503 0.155535
v 0.769288 0.143000 0.631338
v -0.711886 0.683503 0.301774
v 0.631338 0.143000 0.769288
v -0.639847 0.683503 0.436550
v 0.469127 0.143000 0.877675
v -0.542899 0.683503 0.554681
v 0.288887 0.143000 0.952332
v -0.424768 0.683503 0.651630
v 0.097545 0.143000 0.990393
v -0.289993 0.683503 0.723668
v -0.097546 0.143000 0.990393
v -0.143753 0.683503 0.768030
v -0.288887 0.143000 0.952332
v 0.008331 0.683503 0.783009
v -0.469127 0.143000 0.877674
v 0.160416 0.683503 0.768030
v -0.631339 0.143000 0.769288
v 0.306655 0.683503 0.723669
v -0.769289 0.143000 0.631338
v 0.441431 0.683503 0.651630
v -0.877675 0.143000 0.469126
v 0.559562 0.683503 0.554682
v -0.952333 0.143000 0.288886
v 0.656510 0.683503 0.436550
v -0.990393 0.143000 0.097544
v 0.000213 1.188748 -0.515351
v -0.990393 0.143000 -0.097546
v 0.772910 0.683503 0.155535
v -0.952332 0.143000 -0.288888
v 0.787889 0.683503 0.003451
v -0.877674 0.143000 -0.469128
v 0.772910 0.683503 -0.148633
v -0.769287 0.143000 -0.631339
v 0.728549 0.683503 -0.294873
v -0.631338 0.143000 -0.769289
v 0.656510 0.683503 -0.429648
v -0.469126 0.143000 -0.877675
v 0.559562 0.683503 -0.547779
v -0.288885 0.143000 -0.952333
v -0.097544 0.143000 -0.990393
v -0.000000 -0.327194 -0.696211
v 0.135824 -0.327194 -0.682834
v 0.266429 -0.327194 -0.643216
v 0.386794 -0.327194 -0.578879
v 0.492296 -0.327194 -0.492296
v 0.578879 -0.327194 -0.386794
v 0.643216 -0.327194 -0.266429
v 0.682834 -0.327194 -0.135824
v 0.696212 -0.327194 0.000000
v 0.682834 -0.327194 0.135824
v 0.643216 -0.327194 0.266429
v 0.578879 -0.327194 0.386794
v 0.492296 -0.327194 0.492296
v 0.386794 -0.327194 0.578879
v 0.266428 -0.327194 0.643216
v 0.135824 -0.327194 0.682834
v -0.000000 -0.327194 0.696212
v -0.135824 -0.327194 0.682834
v -0.266429 -0.327194 0.643216
v -0.386795 -0.327194 0.578879
v -0.492296 -0.327194 0.492296
v -0.578879 -0.327194 0.386794
v -0.643216 -0.327194 0.266428
v -0.682834 -0.327194 0.135824
v -0.696212 -0.327194 -0.000001
v -0.682834 -0.327194 -0.135825
v -0.643215 -0.327194 -0.266429
v -0.578878 -0.327194 -0.386795
v -0.492295 -0.327194 -0.492297
v -0.386794 -0.327194 -0.578879
v -0.266428 -0.327194 -0.643216
v -0.135823 -0.327194 -0.682834
v 0.197372 1.188748 -0.476134
v 0.735923 0.682081 0.282399
v 0.100724 1.188748 -0.505452
v -0.100297 1.188748 -0.505452
v -0.196946 1.188748 -0.476134
v -0.286018 1.188748 -0.428525
v -0.364090 1.188748 -0.364453
v -0.428162 1.188748 -0.286381
v -0.475772 1.188748 -0.197309
v -0.505090 1.188748 -0.100660
v -0.514989 1.188748 -0.000149
v -0.505090 1.188748 0.100362
v -0.475772 1.188748 0.197010
v -0.428162 1.188748 0.286082
v -0.364090 1.188748 0.364154
v -0.286018 1.188748 0.428226
v -0.196947 1.188748 0.475836
v -0.100298 1.188748 0.505154
v 0.000213 1.188748 0.515054
v 0.100724 1.188748 0.505154
v 0.197372 1.188748 0.475836
v 0.286444 1.188748 0.428226
v 0.364516 1.188748 0.364154
v 0.428588 1.188748 0.286082
v 0.481071 1.187808 0.184205
v 0.505516 1.188748 0.100362
v 0.515415 1.188748 -0.000149
v 0.505516 1.188748 -0.100660
v 0.476198 1.188748 -0.197308
v 0.428588 1.188748 -0.286380
v 0.364516 1.188748 -0.364452
v 0.233536 0.683503 -0.738947
v -0.067710 0.683503 -0.768617
v 0.374043 0.683503 -0.680747
v 0.500496 0.683503 -0.596254
v 0.608036 0.683503 -0.488714
v 0.692530 0.683503 -0.362260
v 0.750730 0.683503 -0.221753
v 0.780400 0.683503 -0.072591
v 0.780400 0.683503 0.079493
v 0.696217 0.682792 0.359474
v 0.754417 0.682792 0.218967
v 0.608036 0.683503 0.495616
v 0.500496 0.683503 0.603156
v 0.374043 0.683503 0.687649
v 0.233535 0.683503 0.745849
v 0.084373 0.683503 0.775519
v -0.067711 0.683503 0.775519
v -0.216873 0.683503 0.745849
v -0.357380 0.683503 0.687649
v -0.483834 0.683503 0.603155
v -0.591373 0.683503 0.495616
v -0.675867 0.683503 0.369162
v -0.734067 0.683503 0.228655
v -0.763737 0.683503 0.079492
v -0.763737 0.683503 -0.072592
v -0.734066 0.683503 -0.221754
v -0.675866 0.683503 -0.362261
v -0.591372 0.683503 -0.488715
v -0.483833 0.683503 -0.596254
v -0.357379 0.683503 -0.680747
v 0.084374 0.683503 -0.768617
v -0.216871 0.683503 -0.738947
vn -0.268000 0.384500 -0.883400
vn 0.090700 0.379900 -0.920600
vn -0.434800 0.386300 -0.813500
vn -0.584800 0.387700 -0.712600
vn -0.712200 0.388700 -0.584500
vn -0.812400 0.389200 -0.434200
vn -0.881500 0.389200 -0.267400
vn -0.916900 0.388700 -0.090300
vn -0.917300 0.387700 0.090300
vn -0.882700 0.386300 0.267800
vn -0.814100 0.384500 0.435200
vn -0.714300 0.382300 0.586200
vn -0.586800 0.379900 0.715000
vn -0.436500 0.377400 0.816700
vn -0.269100 0.374800 0.887200
vn -0.091000 0.372200 0.923700
vn 0.091100 0.369800 0.924600
vn 0.270000 0.367600 0.889900
vn 0.438700 0.365800 0.820800
vn 0.590800 0.364300 0.719900
vn 0.720200 0.363300 0.591100
vn 0.784900 0.473200 0.400000
vn 0.891800 0.362800 0.270500
vn 0.927200 0.363300 0.091300
vn 0.926800 0.364300 -0.091300
vn 0.890600 0.365800 -0.270200
vn 0.820200 0.367600 -0.438400
vn 0.718200 0.369800 -0.589400
vn 0.588800 0.372200 -0.717500
vn 0.437000 0.374800 -0.817600
vn -0.090600 0.382300 -0.919600
vn 0.268800 0.377400 -0.886200
vn 0.082400 -0.540800 -0.837100
vn 0.244200 -0.540800 -0.804900
vn 0.396500 -0.540800 -0.741800
vn 0.533600 -0.540800 -0.650200
vn 0.650200 -0.540800 -0.533600
vn 0.741800 -0.540800 -0.396500
vn 0.804900 -0.540800 -0.244200
vn 0.837100 -0.540800 -0.082400
vn 0.837100 -0.540800 0.082400
vn 0.804900 -0.540800 0.244200
vn 0.741800 -0.540800 0.396500
vn 0.650200 -0.540800 0.533600
vn 0.533600 -0.540800 0.650200
vn 0.396500 -0.540800 0.741800
vn 0.244200 -0.540800 0.804900
vn 0.082400 -0.540800 0.837100
vn -0.082400 -0.540800 0.837100
vn -0.244200 -0.540800 0.804900
vn -0.396500 -0.540800 0.741800
vn -0.533600 -0.540800 0.650200
vn -0.650200 -0.540800 0.533600
vn -0.741800 -0.540800 0.396500
vn -0.804900 -0.540800 0.244200
vn -0.837100 -0.540800 0.082400
vn -0.837100 -0.540800 -0.082400
vn -0.804900 -0.540800 -0.244200
vn -0.741800 -0.540800 -0.396500
vn -0.650200 -0.540800 -0.533600
vn -0.533600 -0.540800 -0.650200
vn -0.396500 -0.540800 -0.741800
vn -0.244200 -0.540800 -0.804900
vn -0.082400 -0.540800 -0.837100
vn -0.042400 -0.901600 -0.430600
vn -0.125600 -0.901600 -0.414000
vn -0.204000 -0.901600 -0.381600
vn -0.274500 -0.901600 -0.334500
vn -0.334500 -0.901600 -0.274500
vn -0.381600 -0.901600 -0.204000
vn -0.414000 -0.901600 -0.125600
vn -0.430600 -0.901600 -0.042400
vn -0.430600 -0.901600 0.042400
vn -0.414000 -0.901600 0.125600
vn -0.381600 -0.901600 0.204000
vn -0.334500 -0.901600 0.274500
vn -0.274500 -0.901600 0.334500
vn -0.204000 -0.901600 0.381600
vn -0.125600 -0.901600 0.414000
vn -0.042400 -0.901600 0.430600
vn 0.042400 -0.901600 0.430600
vn 0.125600 -0.901600 0.414000
vn 0.204000 -0.901600 0.381600
vn 0.274500 -0.901600 0.334500
vn 0.334500 -0.901600 0.274500
vn 0.381600 -0.901600 0.204000
vn 0.414000 -0.901600 0.125600
vn 0.430600 -0.901600 0.042400
vn 0.430600 -0.901600 -0.042400
vn 0.414000 -0.901600 -0.125600
vn 0.381600 -0.901600 -0.204000
vn 0.334500 -0.901600 -0.274500
vn 0.274500 -0.901600 -0.334500
vn 0.204000 -0.901600 -0.381600
vn 0.125600 -0.901600 -0.414000
vn 0.042400 -0.901600 -0.430600
vn 0.257700 0.460300 -0.849500
vn -0.087200 0.455800 -0.885800
vn 0.417900 0.462700 -0.781800
vn 0.561600 0.465100 -0.684300
vn 0.683400 0.467300 -0.560900
vn 0.778800 0.469300 -0.416300
vn 0.844100 0.471100 -0.256100
vn 0.877100 0.472400 -0.086400
vn 0.876600 0.473400 0.086300
vn -0.258700 0.453800 -0.852700
vn 0.892200 0.361400 0.270700
vn 0.893800 0.362000 0.264700
vn 0.829100 0.364800 0.423700
vn 0.843900 0.474100 0.251300
vn 0.680800 0.473500 0.558800
vn 0.559000 0.472700 0.681200
vn 0.415700 0.471400 0.777800
vn 0.256300 0.469800 0.844800
vn 0.086600 0.467900 0.879500
vn -0.086700 0.465700 0.880700
vn -0.257200 0.463300 0.848000
vn -0.418300 0.460900 0.782600
vn -0.563800 0.458600 0.686900
vn -0.687800 0.456300 0.564500
vn -0.785700 0.454200 0.420000
vn -0.853400 0.452500 0.258900
vn -0.917300 0.387700 0.090400
vn -0.888200 0.451100 0.087500
vn -0.888700 0.450100 -0.087500
vn -0.854800 0.449500 -0.259300
vn -0.787800 0.449500 -0.421100
vn -0.690400 0.449900 -0.566600
vn -0.566300 0.450800 -0.690000
vn -0.420500 0.452100 -0.786600
vn 0.087100 0.458000 -0.884700
vn 0.820200 0.367500 0.438400
vn -0.245800 0.531800 -0.810400
vn 0.083000 0.531900 -0.842700
vn -0.399200 0.531800 -0.746900
vn -0.537300 0.531700 -0.654700
vn -0.654700 0.531700 -0.537300
vn -0.746900 0.531700 -0.399300
vn -0.810500 0.531600 -0.245900
vn -0.842900 0.531600 -0.083000
vn -0.842900 0.531600 0.083000
vn -0.810500 0.531600 0.245900
vn -0.747000 0.531600 0.399300
vn -0.654800 0.531600 0.537300
vn -0.537300 0.531600 0.654700
vn -0.399300 0.531600 0.747000
vn -0.245900 0.531600 0.810500
vn -0.083000 0.531600 0.842900
vn 0.083000 0.531700 0.842900
vn 0.245900 0.531700 0.810500
vn 0.399200 0.531700 0.746900
vn 0.537300 0.531800 0.654700
vn 0.654600 0.531800 0.537200
vn 0.811300 0.532000 0.242500
vn 0.842700 0.531900 0.083000
vn 0.842700 0.531900 -0.083000
vn 0.810300 0.531900 -0.245800
vn 0.746800 0.532000 -0.399200
vn 0.654600 0.532000 -0.537200
vn 0.537200 0.531900 -0.654600
vn 0.399200 0.531900 -0.746800
vn -0.083000 0.531900 -0.842800
vn 0.245800 0.531900 -0.810300
vn 0.755300 0.531000 0.384200
vn 0.821800 0.362800 0.439300
usemtl None
s off
f 32//1 45//1 98//1
f 1//2 39//2 36//2
f 31//3 47//3 96//3
f 30//4 49//4 94//4
f 29//5 51//5 92//5
f 28//6 53//6 90//6
f 27//7 55//7 88//7
f 26//8 57//8 86//8
f 25//9 59//9 84//9
f 24//10 61//10 82//10
f 23//11 63//11 80//11
f 22//12 65//12 78//12
f 21//13 67//13 76//13
f 20//14 69//14 74//14
f 19//15 71//15 72//15
f 18//16 73//16 70//16
f 17//17 75//17 68//17
f 16//18 77//18 66//18
f 15//19 79//19 64//19
f 14//20 81//20 62//20
f 13//21 83//21 60//21
f 83//22 172//22 155//22
f 87//23 56//23 11//23
f 10//24 89//24 54//24
f 9//25 91//25 52//25
f 8//26 93//26 50//26
f 7//27 95//27 48//27
f 6//28 97//28 46//28
f 5//29 37//29 44//29
f 4//30 38//30 42//30
f 33//31 43//31 99//31
f 3//32 41//32 40//32
f 1//33 36//33 100//33
f 3//34 40//34 101//34
f 4//35 42//35 102//35
f 5//36 44//36 103//36
f 6//37 46//37 104//37
f 7//38 48//38 105//38
f 8//39 50//39 106//39
f 9//40 52//40 107//40
f 10//41 54//41 108//41
f 11//42 56//42 109//42
f 12//43 58//43 110//43
f 13//44 60//44 111//44
f 14//45 62//45 112//45
f 15//46 64//46 113//46
f 16//47 66//47 114//47
f 17//48 68//48 115//48
f 18//49 70//49 116//49
f 19//50 72//50 117//50
f 20//51 74//51 118//51
f 21//52 76//52 119//52
f 22//53 78//53 120//53
f 23//54 80//54 121//54
f 24//55 82//55 122//55
f 25//56 84//56 123//56
f 26//57 86//57 124//57
f 27//58 88//58 125//58
f 28//59 90//59 126//59
f 29//60 92//60 127//60
f 30//61 94//61 128//61
f 31//62 96//62 129//62
f 32//63 98//63 130//63
f 33//64 99//64 131//64
f 131//65 100//65 35//65
f 131//64 99//64 100//64
f 99//64 1//64 100//64
f 130//66 131//66 35//66
f 130//63 98//63 131//63
f 98//63 33//63 131//63
f 129//67 130//67 35//67
f 129//62 96//62 130//62
f 96//62 32//62 130//62
f 128//68 129//68 35//68
f 128//61 94//61 129//61
f 94//61 31//61 129//61
f 127//69 128//69 35//69
f 127//60 92//60 128//60
f 92//60 30//60 128//60
f 126//70 127//70 35//70
f 126//59 90//59 127//59
f 90//59 29//59 127//59
f 125//71 126//71 35//71
f 125//58 88//58 126//58
f 88//58 28//58 126//58
f 124//72 125//72 35//72
f 124//57 86//57 125//57
f 86//57 27//57 125//57
f 123//73 124//73 35//73
f 123//56 84//56 124//56
f 84//56 26//56 124//56
f 122//74 123//74 35//74
f 122//55 82//55 123//55
f 82//55 25//55 123//55
f 121//75 122//75 35//75
f 121//54 80//54 122//54
f 80//54 24//54 122//54
f 120//76 121//76 35//76
f 120//53 78//53 121//53
f 78//53 23//53 121//53
f 119//77 120//77 35//77
f 119//52 76//52 120//52
f 76//52 22//52 120//52
f 118//78 119//78 35//78
f 118//51 74//51 119//51
f 74//51 21//51 119//51
f 117//79 118//79 35//79
f 117//50 72//50 118//50
f 72//50 20//50 118//50
f 116//80 117//80 35//80
f 116//49 70//49 117//49
f 70//49 19//49 117//49
f 115//81 116//81 35//81
f 115//48 68//48 116//48
f 68//48 18//48 116//48
f 114//82 115//82 35//82
f 114//47 66//47 115//47
f 66//47 17//47 115//47
f 113//83 114//83 35//83
f 113//46 64//46 114//46
f 64//46 16//46 114//46
f 112//84 113//84 35//84
f 112//45 62//45 113//45
f 62//45 15//45 113//45
f 111//85 112//85 35//85
f 111//44 60//44 112//44
f 60//44 14//44 112//44
f 110//86 111//86 35//86
f 110//43 58//43 111//43
f 58//43 13//43 111//43
f 109//87 110//87 35//87
f 109//42 56//42 110//42
f 56//42 12//42 110//42
f 108//88 109//88 35//88
f 108//41 54//41 109//41
f 54//41 11//41 109//41
f 107//89 108//89 35//89
f 107//40 52//40 108//40
f 52//40 10//40 108//40
f 106//90 107//90 35//90
f 106//39 50//39 107//39
f 50//39 9//39 107//39
f 105//91 106//91 35//91
f 105//38 48//38 106//38
f 48//38 8//38 106//38
f 104//92 105//92 35//92
f 104//37 46//37 105//37
f 46//37 7//37 105//37
f 103//93 104//93 35//93
f 103//36 44//36 104//36
f 44//36 6//36 104//36
f 102//94 103//94 35//94
f 102//35 42//35 103//35
f 42//35 5//35 103//35
f 101//95 102//95 35//95
f 101//34 40//34 102//34
f 40//34 4//34 102//34
f 100//96 101//96 35//96
f 100//33 36//33 101//33
f 36//33 3//33 101//33
f 40//32 38//32 4//32
f 40//32 41//32 163//32
f 41//97 134//97 163//97
f 99//31 39//31 1//31
f 99//31 43//31 164//31
f 43//98 135//98 164//98
f 42//30 37//30 5//30
f 42//30 38//30 165//30
f 38//99 132//99 165//99
f 44//29 97//29 6//29
f 44//29 37//29 166//29
f 37//100 34//100 166//100
f 46//28 95//28 7//28
f 46//28 97//28 167//28
f 97//101 162//101 167//101
f 48//27 93//27 8//27
f 48//27 95//27 168//27
f 95//102 161//102 168//102
f 50//26 91//26 9//26
f 50//26 93//26 169//26
f 93//103 160//103 169//103
f 52//25 89//25 10//25
f 52//25 91//25 170//25
f 91//104 159//104 170//104
f 54//24 87//24 11//24
f 54//24 89//24 171//24
f 89//105 158//105 171//105
f 194//106 135//106 43//106
f 12//107 56//107 133//107
f 173//108 133//108 56//108
f 133//109 172//109 58//109
f 194//106 136//106 135//106
f 133//110 173//110 156//110
f 60//21 81//21 14//21
f 60//21 83//21 174//21
f 83//111 155//111 174//111
f 62//20 79//20 15//20
f 62//20 81//20 175//20
f 81//112 154//112 175//112
f 64//19 77//19 16//19
f 64//19 79//19 176//19
f 79//113 153//113 176//113
f 66//18 75//18 17//18
f 66//18 77//18 177//18
f 77//114 152//114 177//114
f 68//17 73//17 18//17
f 68//17 75//17 178//17
f 75//115 151//115 178//115
f 70//16 71//16 19//16
f 70//16 73//16 179//16
f 73//116 150//116 179//116
f 72//15 69//15 20//15
f 72//15 71//15 180//15
f 71//117 149//117 180//117
f 74//14 67//14 21//14
f 74//14 69//14 181//14
f 69//118 148//118 181//118
f 76//13 65//13 22//13
f 76//13 67//13 182//13
f 67//119 147//119 182//119
f 78//12 63//12 23//12
f 78//12 65//12 183//12
f 65//120 146//120 183//120
f 80//11 61//11 24//11
f 80//11 63//11 184//11
f 63//121 145//121 184//121
f 82//10 59//10 25//10
f 82//10 61//10 185//10
f 61//122 144//122 185//122
f 84//123 57//123 26//123
f 84//123 59//123 186//123
f 59//124 143//124 186//124
f 86//8 55//8 27//8
f 86//8 57//8 187//8
f 57//125 142//125 187//125
f 88//7 53//7 28//7
f 88//7 55//7 188//7
f 55//126 141//126 188//126
f 90//6 51//6 29//6
f 90//6 53//6 189//6
f 53//127 140//127 189//127
f 92//5 49//5 30//5
f 92//5 51//5 190//5
f 51//128 139//128 190//128
f 94//4 47//4 31//4
f 94//4 49//4 191//4
f 49//129 138//129 191//129
f 96//3 45//3 32//3
f 96//3 47//3 192//3
f 47//130 137//130 192//130
f 36//2 41//2 3//2
f 36//2 39//2 193//2
f 39//131 85//131 193//131
f 98//1 43//1 33//1
f 98//1 45//1 194//1
f 45//106 136//106 194//106
f 133//132 58//132 12//132
f 136//133 2//133 135//133
f 193//131 134//131 41//131
f 193//131 85//131 134//131
f 85//134 2//134 134//134
f 192//130 136//130 45//130
f 192//130 137//130 136//130
f 137//135 2//135 136//135
f 191//129 137//129 47//129
f 191//129 138//129 137//129
f 138//136 2//136 137//136
f 190//128 138//128 49//128
f 190//128 139//128 138//128
f 139//137 2//137 138//137
f 189//127 139//127 51//127
f 189//127 140//127 139//127
f 140//138 2//138 139//138
f 188//126 140//126 53//126
f 188//126 141//126 140//126
f 141//139 2//139 140//139
f 187//125 141//125 55//125
f 187//125 142//125 141//125
f 142//140 2//140 141//140
f 186//124 142//124 57//124
f 186//124 143//124 142//124
f 143//141 2//141 142//141
f 185//122 143//122 59//122
f 185//122 144//122 143//122
f 144//142 2//142 143//142
f 184//121 144//121 61//121
f 184//121 145//121 144//121
f 145//143 2//143 144//143
f 183//120 145//120 63//120
f 183//120 146//120 145//120
f 146//144 2//144 145//144
f 182//119 146//119 65//119
f 182//119 147//119 146//119
f 147//145 2//145 146//145
f 181//118 147//118 67//118
f 181//118 148//118 147//118
f 148//146 2//146 147//146
f 180//117 148//117 69//117
f 180//117 149//117 148//117
f 149//147 2//147 148//147
f 179//116 149//116 71//116
f 179//116 150//116 149//116
f 150//148 2//148 149//148
f 178//115 150//115 73//115
f 178//115 151//115 150//115
f 151//149 2//149 150//149
f 177//114 151//114 75//114
f 177//114 152//114 151//114
f 152//150 2//150 151//150
f 176//113 152//113 77//113
f 176//113 153//113 152//113
f 153//151 2//151 152//151
f 175//112 153//112 79//112
f 175//112 154//112 153//112
f 154//152 2//152 153//152
f 174//111 154//111 81//111
f 174//111 155//111 154//111
f 155//153 2//153 154//153
f 156//154 157//154 2//154
f 156//110 173//110 157//110
f 173//110 87//110 157//110
f 171//105 157//105 87//105
f 171//105 158//105 157//105
f 158//155 2//155 157//155
f 170//104 158//104 89//104
f 170//104 159//104 158//104
f 159//156 2//156 158//156
f 169//103 159//103 91//103
f 169//103 160//103 159//103
f 160//157 2//157 159//157
f 168//102 160//102 93//102
f 168//102 161//102 160//102
f 161//158 2//158 160//158
f 167//101 161//101 95//101
f 167//101 162//101 161//101
f 162//159 2//159 161//159
f 166//100 162//100 97//100
f 166//100 34//100 162//100
f 34//160 2//160 162//160
f 165//99 34//99 37//99
f 165//99 132//99 34//99
f 132//161 2//161 34//161
f 164//98 85//98 39//98
f 164//98 135//98 85//98
f 135//162 2//162 85//162
f 163//97 132//97 38//97
f 163//97 134//97 132//97
f 134//163 2//163 132//163
f 133//22 156//22 172//22
f 155//164 156//164 2//164
f 156//22 155//22 172//22
f 38//32 40//32 163//32
f 39//31 99//31 164//31
f 37//30 42//30 165//30
f 97//29 44//29 166//29
f 95//28 46//28 167//28
f 93//27 48//27 168//27
f 91//26 50//26 169//26
f 89//25 52//25 170//25
f 87//24 54//24 171//24
f 87//108 173//108 56//108
f 13//165 58//165 83//165
f 172//109 83//109 58//109
f 81//21 60//21 174//21
f 79//20 62//20 175//20
f 77//19 64//19 176//19
f 75//18 66//18 177//18
f 73//17 68//17 178//17
f 71//16 70//16 179//16
f 69//15 72//15 180//15
f 67//14 74//14 181//14
f 65//13 76//13 182//13
f 63//12 78//12 183//12
f 61//11 80//11 184//11
f 59//10 82//10 185//10
f 57//123 84//123 186//123
f 55//8 86//8 187//8
f 53//7 88//7 188//7
f 51//6 90//6 189//6
f 49//5 92//5 190//5
f 47//4 94//4 191//4
f 45//3 96//3 192//3
f 41//2 36//2 193//2
f 43//1 98//1 194//1
