# Blender v2.76 (sub 0) OBJ File: ''
# www.blender.org
mtllib gun.mtl
o Cube.001
v 0.189946 0.054042 -0.847925
v 0.189949 0.053889 -0.738246
v -0.191563 0.047843 -0.738245
v -0.191566 0.047996 -0.847924
v -0.195716 0.309910 -0.737880
v 0.185796 0.315956 -0.737880
v 0.185793 0.316109 -0.847559
v -0.195719 0.310063 -0.847559
v 0.189963 0.053071 -0.151936
v 0.185810 0.315138 -0.151570
v 0.185837 0.313530 1.000434
v 0.189990 0.051463 1.000068
v -0.191522 0.045417 1.000069
v -0.195675 0.307484 1.000435
v -0.195702 0.309092 -0.151569
v -0.191549 0.047025 -0.151935
v 0.198759 -0.502025 -0.739022
v 0.198772 -0.502844 -0.152712
v -0.182740 -0.508890 -0.152711
v -0.182753 -0.508071 -0.739022
vt 0.423225 0.927443
vt 0.377511 0.927443
vt 0.377511 0.768723
vt 0.423225 0.768723
vt 0.681939 0.723099
vt 0.840970 0.723099
vt 0.840970 0.768723
vt 0.681939 0.768723
vt 0.231729 0.723099
vt 0.340970 0.723099
vt 0.340970 0.768723
vt 0.231729 0.768723
vt 0.268271 0.768723
vt 0.268271 0.927443
vt 0.572699 0.289516
vt 0.681939 0.289516
vt 0.572699 0.768723
vt 0.572699 0.045624
vt 0.681939 0.045624
vt 0.231729 0.000000
vt 0.340970 0.000000
vt 0.340970 0.479207
vt 0.231729 0.479207
vt 0.681939 0.000000
vt 0.840970 0.000000
vt 0.840970 0.479207
vt 0.681939 0.479207
vt 0.340970 0.045624
vt 0.340970 0.289516
vt 0.159030 0.768723
vt 0.159030 0.927443
vt 0.840970 0.954376
vt 1.000000 0.723099
vt 1.000000 0.954376
vt 1.000000 0.000000
vt 1.000000 0.479207
vt 0.000000 0.479207
vt 0.000000 0.723099
vt 0.159030 1.000000
vt 0.000000 1.000000
vt 0.000000 0.768723
vt 0.572699 0.000000
vn 0.015800 -0.999900 -0.001400
vn -0.015800 0.999900 0.001400
vn -0.999900 -0.015800 0.000000
vn -0.000000 0.001400 -1.000000
vn 0.999900 0.015800 -0.000000
vn 0.000000 -0.001400 1.000000
usemtl Material.001
s 1
f 1/1/1 2/2/1 3/3/1 4/4/1
f 5/5/2 6/6/2 7/7/2 8/8/2
f 3/9/3 5/10/3 8/11/3 4/12/3
f 4/13/4 8/3/4 7/2/4 1/14/4
f 9/15/5 10/16/5 11/8/5 12/17/5
f 2/18/5 6/19/5 10/16/5 9/15/5
f 13/20/3 14/21/3 15/22/3 16/23/3
f 14/24/2 11/25/2 10/26/2 15/27/2
f 17/28/5 2/18/5 9/15/5 18/29/5
f 14/30/6 13/13/6 12/14/6 11/31/6
f 18/32/6 9/6/6 16/33/6 19/34/6
f 13/35/1 16/36/1 9/26/1 12/25/1
f 19/37/3 16/23/3 3/9/3 20/38/3
f 2/30/4 17/39/4 20/40/4 3/41/4
f 1/42/5 7/24/5 6/19/5 2/18/5
f 16/23/3 15/22/3 5/10/3 3/9/3
f 15/27/2 10/26/2 6/6/2 5/5/2
f 19/36/1 20/33/1 17/6/1 18/26/1
