# Blender v2.76 (sub 0) OBJ File: 'crate.blend'
# www.blender.org
mtllib crate.mtl
o Cube_Cube.001
v -1.000000 -1.000000 1.000000
v -1.000000 1.000000 1.000000
v -1.000000 -1.000000 -1.000000
v -1.000000 1.000000 -1.000000
v 1.000000 -1.000000 1.000000
v 1.000000 1.000000 1.000000
v 1.000000 -1.000000 -1.000000
v 1.000000 1.000000 -1.000000
v -1.000000 0.000000 1.000000
v -1.000000 1.000000 0.000000
v -1.000000 0.000000 -1.000000
v -1.000000 -1.000000 0.000000
v 0.000000 1.000000 -1.000000
v 1.000000 0.000000 -1.000000
v 0.000000 -1.000000 -1.000000
v 1.000000 1.000000 0.000000
v 1.000000 0.000000 1.000000
v 1.000000 -1.000000 0.000000
v 0.000000 1.000000 1.000000
v 0.000000 -1.000000 1.000000
v -0.750000 -0.898127 0.000000
v -0.900044 0.750000 0.000000
v 0.000000 0.750000 0.900063
v -1.000000 0.500000 1.000000
v -1.000000 1.000000 -0.500000
v -1.000000 -0.500000 -1.000000
v -1.000000 -1.000000 0.500000
v 0.500000 1.000000 -1.000000
v 1.000000 -0.500000 -1.000000
v -0.500000 -1.000000 -1.000000
v 1.000000 1.000000 0.500000
v 1.000000 -0.500000 1.000000
v 1.000000 -1.000000 -0.500000
v -0.500000 1.000000 1.000000
v 0.500000 -1.000000 1.000000
v -1.000000 -0.500000 1.000000
v -1.000000 1.000000 0.500000
v -1.000000 0.500000 -1.000000
v -1.000000 -1.000000 -0.500000
v -0.500000 1.000000 -1.000000
v 1.000000 0.500000 -1.000000
v 0.500000 -1.000000 -1.000000
v 1.000000 1.000000 -0.500000
v 1.000000 0.500000 1.000000
v 1.000000 -1.000000 0.500000
v 0.500000 1.000000 1.000000
v -0.500000 -1.000000 1.000000
v -0.750000 1.000000 0.000000
v 0.750000 1.000000 0.000000
v 0.000000 1.000000 0.750000
v 0.000000 1.000000 -0.750000
v 0.750000 -1.000000 0.000000
v -0.750000 -1.000000 0.000000
v 0.000000 -1.000000 0.750000
v 0.000000 -1.000000 -0.750000
v 0.000000 -0.750000 1.000000
v 0.000000 0.750000 1.000000
v 0.750000 0.000000 1.000000
v -0.750000 0.000000 1.000000
v 1.000000 -0.750000 0.000000
v 1.000000 0.750000 0.000000
v 1.000000 0.000000 -0.750000
v 1.000000 0.000000 0.750000
v 0.000000 -0.750000 -1.000000
v 0.000000 0.750000 -1.000000
v -0.750000 0.000000 -1.000000
v 0.750000 0.000000 -1.000000
v -1.000000 -0.750000 0.000000
v -1.000000 0.750000 0.000000
v -1.000000 0.000000 0.750000
v -1.000000 0.000000 -0.750000
v -1.000000 0.750000 -0.750000
v -1.000000 0.750000 0.750000
v -1.000000 -0.750000 0.750000
v 0.750000 0.750000 -1.000000
v -0.750000 0.750000 -1.000000
v -0.750000 -0.750000 -1.000000
v 1.000000 0.750000 0.750000
v 1.000000 0.750000 -0.750000
v 1.000000 -0.750000 -0.750000
v -0.750000 0.750000 1.000000
v 0.750000 0.750000 1.000000
v 0.750000 -0.750000 1.000000
v -0.750000 -1.000000 -0.750000
v -0.750000 -1.000000 0.750000
v 0.750000 -1.000000 0.750000
v 0.750000 1.000000 -0.750000
v 0.750000 1.000000 0.750000
v -0.750000 1.000000 0.750000
v -0.750000 1.000000 -0.750000
v 0.750000 -1.000000 -0.750000
v -0.750000 -0.750000 1.000000
v 1.000000 -0.750000 0.750000
v 0.750000 -0.750000 -1.000000
v -1.000000 -0.750000 -0.750000
v 0.000000 0.750000 -0.899406
v 0.000000 0.000000 -0.899406
v 0.750000 0.000000 -0.899406
v 0.000000 -0.750000 -0.899406
v -0.750000 0.000000 -0.899406
v 0.750000 0.750000 -0.899406
v -0.750000 0.750000 -0.899406
v -0.750000 -0.750000 -0.899406
v 0.750000 -0.750000 -0.899406
v 0.899501 0.750000 0.000000
v 0.899501 0.000000 0.000000
v 0.899501 0.000000 0.750000
v 0.899501 -0.750000 0.000000
v 0.899501 0.000000 -0.750000
v 0.899501 0.750000 0.750000
v 0.899501 0.750000 -0.750000
v 0.899501 -0.750000 -0.750000
v 0.899501 -0.750000 0.750000
v 0.000000 0.000000 0.900063
v -0.750000 0.000000 0.900063
v 0.000000 -0.750000 0.900063
v 0.750000 0.000000 0.900063
v -0.750000 0.750000 0.900063
v 0.750000 0.750000 0.900063
v 0.750000 -0.750000 0.900063
v -0.750000 -0.750000 0.900063
v -0.900044 0.000000 0.000000
v -0.900044 0.000000 -0.750000
v -0.900044 -0.750000 0.000000
v -0.900044 0.000000 0.750000
v -0.900044 0.750000 -0.750000
v -0.900044 0.750000 0.750000
v -0.900044 -0.750000 0.750000
v -0.900044 -0.750000 -0.750000
v 0.750000 0.898829 0.000000
v 0.000000 0.898829 0.000000
v 0.000000 0.898829 -0.750000
v -0.750000 0.898829 0.000000
v 0.000000 0.898829 0.750000
v 0.750000 0.898829 -0.750000
v 0.750000 0.898829 0.750000
v -0.750000 0.898829 0.750000
v -0.750000 0.898829 -0.750000
v 0.000000 -0.898127 0.000000
v 0.000000 -0.898127 -0.750000
v 0.750000 -0.898127 0.000000
v 0.000000 -0.898127 0.750000
v -0.750000 -0.898127 -0.750000
v -0.750000 -0.898127 0.750000
v 0.750000 -0.898127 0.750000
v 0.750000 -0.898127 -0.750000
vt 0.786383 0.786787
vt 0.897633 0.675538
vt 0.897633 0.898037
vt 0.118775 0.119168
vt 0.007526 0.230417
vt 0.007526 0.007919
vt 0.786269 0.786742
vt 0.897518 0.675493
vt 0.897519 0.897991
vt 0.007584 0.230459
vt 0.007584 0.007960
vt 0.118921 0.119546
vt 0.007672 0.230796
vt 0.007672 0.008297
vt 0.786374 0.119296
vt 0.675124 0.008046
vt 0.897623 0.008046
vt 0.786374 0.453044
vt 0.897623 0.453044
vt 0.942750 0.223714
vt 0.928347 0.223714
vt 0.928347 0.116941
vt 0.230127 0.008046
vt 0.452626 0.008046
vt 0.452626 0.119295
vt 0.452669 0.119546
vt 0.452669 0.008297
vt 0.675168 0.008297
vt 0.974084 0.010337
vt 0.988587 0.010337
vt 0.988587 0.117110
vt 0.007672 0.675793
vt 0.007672 0.453295
vt 0.118921 0.453295
vt 0.452582 0.119210
vt 0.973108 0.438123
vt 0.958880 0.438123
vt 0.958880 0.331350
vt 0.007584 0.675456
vt 0.007584 0.452957
vt 0.118834 0.452957
vt 0.452521 0.786742
vt 0.452521 0.897991
vt 0.230023 0.897991
vt 0.958777 0.225201
vt 0.973084 0.225201
vt 0.973084 0.331973
vt 0.897519 0.230495
vt 0.897518 0.452994
vt 0.786269 0.452994
vt 0.452523 0.119168
vt 0.452523 0.007919
vt 0.675022 0.007919
vt 0.963885 0.239701
vt 0.949564 0.239696
vt 0.949596 0.132924
vt 0.007526 0.675415
vt 0.007526 0.452916
vt 0.118775 0.452916
vt 0.452635 0.786787
vt 0.452635 0.898037
vt 0.230137 0.898037
vt 0.988183 0.116301
vt 0.973952 0.116301
vt 0.973952 0.009528
vt 0.897633 0.230541
vt 0.973089 0.116301
vt 0.958859 0.116301
vt 0.958859 0.009528
vt 0.118887 0.119291
vt 0.118887 0.453039
vt 0.118887 0.786787
vt 0.007638 0.898037
vt 0.973948 0.331973
vt 0.988178 0.331973
vt 0.988178 0.438746
vt 0.928421 0.225201
vt 0.942742 0.225201
vt 0.942742 0.331974
vt 0.230025 0.897914
vt 0.118775 0.786664
vt 0.007526 0.897914
vt 0.897521 0.675415
vt 0.786271 0.452916
vt 0.897521 0.897914
vt 0.675022 0.897914
vt 0.452523 0.897914
vt 0.786271 0.119168
vt 0.897521 0.007919
vt 0.897521 0.230418
vt 0.973201 0.223714
vt 0.958880 0.223714
vt 0.958880 0.116941
vt 0.957995 0.116301
vt 0.943688 0.116301
vt 0.943688 0.009528
vt 0.675020 0.007997
vt 0.897519 0.007997
vt 0.007524 0.230495
vt 0.007524 0.007997
vt 0.230022 0.007996
vt 0.452521 0.007997
vt 0.007524 0.897991
vt 0.007524 0.675493
vt 0.957913 0.331974
vt 0.943606 0.331974
vt 0.943606 0.225201
vt 0.942575 0.438123
vt 0.928347 0.438123
vt 0.928347 0.331350
vt 0.452582 0.786706
vt 0.675080 0.897955
vt 0.973108 0.331350
vt 0.958880 0.224577
vt 0.943350 0.117110
vt 0.957853 0.117110
vt 0.957853 0.223883
vt 0.230171 0.898292
vt 0.118921 0.787042
vt 0.452669 0.787042
vt 0.007672 0.898292
vt 0.897667 0.675793
vt 0.786417 0.787042
vt 0.786417 0.453295
vt 0.897667 0.898292
vt 0.675168 0.898292
vt 0.452669 0.898292
vt 0.786417 0.119546
vt 0.897667 0.008297
vt 0.897667 0.230796
vt 0.958717 0.117110
vt 0.973220 0.117110
vt 0.973220 0.223883
vt 0.948700 0.239696
vt 0.934297 0.239692
vt 0.934329 0.132919
vt 0.913080 0.010168
vt 0.927484 0.010168
vt 0.927484 0.116941
vt 0.958017 0.223714
vt 0.943614 0.223714
vt 0.943614 0.116941
vt 0.230171 0.008297
vt 0.942487 0.223883
vt 0.927984 0.223883
vt 0.927984 0.117110
vt 0.957841 0.438123
vt 0.943614 0.438123
vt 0.943614 0.331350
vt 0.675020 0.897991
vt 0.928517 0.116301
vt 0.942824 0.116301
vt 0.942824 0.223074
vt 0.230025 0.007919
vt 0.974065 0.010168
vt 0.988386 0.010168
vt 0.988386 0.116941
vt 0.927311 0.438123
vt 0.913080 0.438123
vt 0.913080 0.331350
vt 0.779413 0.452739
vt 0.453456 0.452739
vt 0.453456 0.126782
vt 0.779413 0.778697
vt 0.453456 0.778697
vt 0.127498 0.452740
vt 0.127498 0.126782
vt 0.127498 0.778697
vt 0.928421 0.331974
vt 0.942742 0.438746
vt 0.974065 0.116941
vt 0.988386 0.223714
vt 0.973201 0.116941
vt 0.958880 0.010168
vt 0.963917 0.132928
vt 0.949629 0.026151
vt 0.453467 0.127400
vt 0.453467 0.453357
vt 0.127509 0.453357
vt 0.779425 0.127400
vt 0.779425 0.453357
vt 0.453467 0.779315
vt 0.127509 0.779315
vt 0.779424 0.779315
vt 0.928517 0.009528
vt 0.942824 0.009528
vt 0.957995 0.223074
vt 0.943688 0.223074
vt 0.957913 0.438746
vt 0.943606 0.438746
vt 0.958777 0.331973
vt 0.973084 0.438746
vt 0.453393 0.778617
vt 0.453393 0.452659
vt 0.127435 0.778617
vt 0.127436 0.452659
vt 0.453393 0.126702
vt 0.779351 0.126702
vt 0.127436 0.126702
vt 0.988292 0.331350
vt 0.974065 0.331350
vt 0.974065 0.224577
vt 0.957841 0.331350
vt 0.943614 0.224577
vt 0.942575 0.331350
vt 0.928347 0.224577
vt 0.988292 0.438123
vt 0.974065 0.438123
vt 0.779646 0.453025
vt 0.453689 0.453026
vt 0.453689 0.127068
vt 0.779646 0.778983
vt 0.453689 0.778983
vt 0.127732 0.453026
vt 0.127731 0.127068
vt 0.127731 0.778983
vt 0.973948 0.225201
vt 0.988178 0.225201
vt 0.927311 0.331350
vt 0.913080 0.224577
vt 0.973089 0.223074
vt 0.958859 0.223074
vt 0.988183 0.223074
vt 0.973952 0.223074
vt 0.779471 0.452886
vt 0.453514 0.452886
vt 0.453514 0.126928
vt 0.779471 0.778843
vt 0.453514 0.778844
vt 0.127556 0.452886
vt 0.127556 0.126928
vt 0.127556 0.778844
vt 0.913080 0.116941
vt 0.927484 0.223714
vt 0.958017 0.116941
vt 0.943614 0.010168
vt 0.948733 0.132923
vt 0.934362 0.026146
vt 0.942750 0.116941
vt 0.928347 0.010168
vt 0.453635 0.127017
vt 0.453635 0.452975
vt 0.779592 0.127017
vt 0.453635 0.778932
vt 0.127677 0.778932
vt 0.779592 0.778932
vt 0.958717 0.010337
vt 0.973220 0.010337
vt 0.943350 0.010337
vt 0.957853 0.010337
vt 0.942487 0.117110
vt 0.927984 0.010337
vt 0.974084 0.117110
vt 0.988587 0.223883
vt 0.988183 0.009528
vt 0.973089 0.009528
vt 0.973948 0.438746
vt 0.897521 0.452916
vt 0.957995 0.009528
vt 0.007524 0.452994
vt 0.957913 0.225201
vt 0.973108 0.224577
vt 0.943350 0.223883
vt 0.897667 0.453295
vt 0.958717 0.223883
vt 0.928517 0.223074
vt 0.779413 0.126782
vt 0.928421 0.438746
vt 0.974065 0.223714
vt 0.973201 0.010168
vt 0.963949 0.026155
vt 0.127510 0.127400
vt 0.958777 0.438746
vt 0.779350 0.778617
vt 0.988292 0.224577
vt 0.957841 0.224577
vt 0.942575 0.224577
vt 0.779646 0.127068
vt 0.927311 0.224577
vt 0.779471 0.126928
vt 0.913080 0.223714
vt 0.958017 0.010168
vt 0.948765 0.026151
vt 0.942750 0.010168
vt 0.127677 0.127017
vt 0.942487 0.010337
vt 0.974084 0.223883
vn -1.000000 0.000000 0.000000
vn 0.000000 0.000000 -1.000000
vn 1.000000 0.000000 0.000000
vn 0.000000 0.000000 1.000000
vn 0.000000 -1.000000 0.000000
vn 0.000000 1.000000 0.000000
usemtl None
s off
f 95/1/1 26/2/1 3/3/1
f 94/4/2 29/5/2 7/6/2
f 93/7/3 32/8/3 5/9/3
f 92/4/4 36/10/4 1/11/4
f 91/12/5 42/13/5 7/14/5
f 90/15/6 40/16/6 4/17/6
f 48/18/6 10/19/6 37/2/6
f 89/20/3 137/21/3 133/22/3
f 28/23/6 13/24/6 51/25/6
f 52/26/5 18/27/5 45/28/5
f 85/29/2 144/30/2 142/31/2
f 30/32/5 15/33/5 55/34/5
f 56/35/4 20/24/4 35/16/4
f 83/36/6 120/37/6 116/38/6
f 24/39/4 9/40/4 59/41/4
f 60/42/3 18/43/3 33/44/3
f 93/45/2 113/46/2 107/47/2
f 44/48/3 17/49/3 63/50/3
f 64/51/2 15/52/2 30/53/2
f 77/54/6 103/55/6 99/56/6
f 41/57/2 14/58/2 67/59/2
f 68/60/1 12/61/1 27/62/1
f 69/63/5 22/64/5 127/65/5
f 38/66/1 11/19/1 71/18/1
f 70/67/2 125/68/2 128/69/2
f 25/16/1 72/15/1 69/25/1
f 4/17/1 38/66/1 72/15/1
f 24/10/1 73/70/1 70/71/1
f 2/11/1 37/23/1 73/70/1
f 37/23/1 10/24/1 69/25/1
f 74/72/1 27/62/1 1/73/1
f 70/71/1 74/72/1 36/39/1
f 71/74/4 123/75/4 126/76/4
f 94/77/1 104/78/1 98/79/1
f 28/80/2 75/81/2 65/42/2
f 8/82/2 41/57/2 75/81/2
f 38/83/2 76/7/2 66/84/2
f 4/85/2 40/86/2 76/7/2
f 40/86/2 13/87/2 65/42/2
f 77/88/2 30/53/2 3/89/2
f 66/84/2 77/88/2 26/90/2
f 75/91/5 101/92/5 96/93/5
f 61/94/5 105/95/5 111/96/5
f 31/97/3 78/88/3 61/51/3
f 6/98/3 44/48/3 78/88/3
f 41/99/3 79/4/3 62/41/3
f 8/100/3 43/101/3 79/4/3
f 43/101/3 16/102/3 61/51/3
f 80/81/3 33/44/3 7/103/3
f 62/41/3 80/81/3 29/104/3
f 60/105/6 108/106/6 113/107/6
f 81/108/5 118/109/5 23/110/5
f 34/62/4 81/81/4 57/111/4
f 2/73/4 24/39/4 81/81/4
f 44/2/4 82/7/4 58/50/4
f 6/3/4 46/112/4 82/7/4
f 46/112/4 19/61/4 57/111/4
f 83/88/4 35/16/4 5/17/4
f 58/50/4 83/88/4 32/66/4
f 56/113/6 116/38/6 121/114/6
f 52/115/1 141/116/1 146/117/1
f 39/118/5 84/119/5 53/120/5
f 3/121/5 30/32/5 84/119/5
f 47/122/5 85/123/5 54/124/5
f 1/125/5 27/126/5 85/123/5
f 27/126/5 12/127/5 53/120/5
f 86/128/5 45/28/5 5/129/5
f 54/124/5 86/128/5 35/130/5
f 53/131/3 21/132/3 144/133/3
f 87/134/1 135/135/1 130/136/1
f 43/10/6 87/70/6 49/71/6
f 8/11/6 28/23/6 87/70/6
f 46/62/6 88/72/6 50/60/6
f 6/73/6 31/39/6 88/72/6
f 31/39/6 16/40/6 49/71/6
f 89/1/6 37/2/6 2/3/6
f 50/60/6 89/1/6 34/112/6
f 90/137/4 138/138/4 132/139/4
f 48/18/6 90/15/6 25/66/6
f 88/140/2 136/141/2 134/142/2
f 51/25/6 13/24/6 40/16/6
f 52/26/5 91/12/5 33/143/5
f 91/144/4 146/145/4 140/146/4
f 55/34/5 15/33/5 42/13/5
f 56/35/4 92/4/4 47/23/4
f 82/147/1 119/148/1 117/149/1
f 59/41/4 9/40/4 36/10/4
f 60/42/3 93/7/3 45/150/3
f 62/151/4 109/152/4 112/153/4
f 63/50/3 17/49/3 32/8/3
f 64/51/2 94/4/2 42/154/2
f 76/155/3 102/156/3 100/157/3
f 67/59/2 14/58/2 29/5/2
f 68/60/1 95/1/1 39/112/1
f 74/158/6 128/159/6 124/160/6
f 71/18/1 11/19/1 26/2/1
f 96/161/2 97/162/2 100/163/2
f 101/164/2 98/165/2 97/162/2
f 97/162/2 99/166/2 103/167/2
f 98/165/2 104/168/2 99/166/2
f 67/169/1 98/79/1 101/170/1
f 66/171/3 100/157/3 103/172/3
f 65/173/5 96/93/5 102/174/5
f 64/175/6 99/56/6 104/176/6
f 105/177/3 106/178/3 109/179/3
f 110/180/3 107/181/3 106/178/3
f 106/178/3 108/182/3 112/183/3
f 107/181/3 113/184/3 108/182/3
f 79/185/4 111/186/4 109/152/4
f 78/187/5 110/188/5 105/95/5
f 80/189/6 112/190/6 108/106/6
f 63/191/2 107/47/2 110/192/2
f 23/193/4 114/194/4 117/161/4
f 118/195/4 115/196/4 114/194/4
f 114/194/4 116/197/4 120/198/4
f 115/196/4 121/199/4 116/197/4
f 59/200/3 115/201/3 118/202/3
f 58/203/1 117/149/1 120/204/1
f 57/205/5 23/110/5 119/206/5
f 92/207/3 121/208/3 115/201/3
f 22/209/1 122/210/1 125/211/1
f 126/212/1 123/213/1 122/210/1
f 122/210/1 124/214/1 128/215/1
f 123/213/1 129/216/1 124/214/1
f 95/217/4 129/218/4 123/75/4
f 68/219/6 124/160/6 129/220/6
f 73/221/2 127/222/2 125/68/2
f 72/223/5 126/224/5 22/64/5
f 130/225/6 131/226/6 134/227/6
f 135/228/6 132/229/6 131/226/6
f 131/226/6 133/230/6 137/231/6
f 132/229/6 138/232/6 133/230/6
f 51/233/4 132/139/4 135/234/4
f 50/235/2 134/142/2 137/236/2
f 49/237/1 130/136/1 136/238/1
f 48/239/3 133/22/3 138/240/3
f 21/241/5 139/242/5 142/214/5
f 143/243/5 140/209/5 139/242/5
f 139/242/5 141/244/5 145/245/5
f 140/209/5 146/246/5 141/244/5
f 84/247/3 143/248/3 21/132/3
f 86/249/1 145/250/1 141/116/1
f 55/251/4 140/146/4 143/252/4
f 54/253/2 142/31/2 145/254/2
f 39/112/1 95/1/1 3/3/1
f 42/154/2 94/4/2 7/6/2
f 45/150/3 93/7/3 5/9/3
f 47/23/4 92/4/4 1/11/4
f 33/143/5 91/12/5 7/14/5
f 25/66/6 90/15/6 4/17/6
f 89/1/6 48/18/6 37/2/6
f 48/239/3 89/20/3 133/22/3
f 87/70/6 28/23/6 51/25/6
f 86/128/5 52/26/5 45/28/5
f 54/253/2 85/29/2 142/31/2
f 84/119/5 30/32/5 55/34/5
f 83/88/4 56/35/4 35/16/4
f 56/113/6 83/36/6 116/38/6
f 81/81/4 24/39/4 59/41/4
f 80/81/3 60/42/3 33/44/3
f 63/191/2 93/45/2 107/47/2
f 78/88/3 44/48/3 63/50/3
f 77/88/2 64/51/2 30/53/2
f 64/175/6 77/54/6 99/56/6
f 75/81/2 41/57/2 67/59/2
f 74/72/1 68/60/1 27/62/1
f 73/255/5 69/63/5 127/65/5
f 72/15/1 38/66/1 71/18/1
f 74/256/2 70/67/2 128/69/2
f 10/24/1 25/16/1 69/25/1
f 25/16/1 4/17/1 72/15/1
f 9/40/1 24/10/1 70/71/1
f 24/10/1 2/11/1 73/70/1
f 73/70/1 37/23/1 69/25/1
f 36/39/1 74/72/1 1/73/1
f 9/40/1 70/71/1 36/39/1
f 72/257/4 71/74/4 126/76/4
f 67/169/1 94/77/1 98/79/1
f 13/87/2 28/80/2 65/42/2
f 28/80/2 8/82/2 75/81/2
f 11/258/2 38/83/2 66/84/2
f 38/83/2 4/85/2 76/7/2
f 76/7/2 40/86/2 65/42/2
f 26/90/2 77/88/2 3/89/2
f 11/258/2 66/84/2 26/90/2
f 65/173/5 75/91/5 96/93/5
f 79/259/5 61/94/5 111/96/5
f 16/102/3 31/97/3 61/51/3
f 31/97/3 6/98/3 78/88/3
f 14/260/3 41/99/3 62/41/3
f 41/99/3 8/100/3 79/4/3
f 79/4/3 43/101/3 61/51/3
f 29/104/3 80/81/3 7/103/3
f 14/260/3 62/41/3 29/104/3
f 93/261/6 60/105/6 113/107/6
f 57/205/5 81/108/5 23/110/5
f 19/61/4 34/62/4 57/111/4
f 34/62/4 2/73/4 81/81/4
f 17/19/4 44/2/4 58/50/4
f 44/2/4 6/3/4 82/7/4
f 82/7/4 46/112/4 57/111/4
f 32/66/4 83/88/4 5/17/4
f 17/19/4 58/50/4 32/66/4
f 92/262/6 56/113/6 121/114/6
f 91/263/1 52/115/1 146/117/1
f 12/127/5 39/118/5 53/120/5
f 39/118/5 3/121/5 84/119/5
f 20/264/5 47/122/5 54/124/5
f 47/122/5 1/125/5 85/123/5
f 85/123/5 27/126/5 53/120/5
f 35/130/5 86/128/5 5/129/5
f 20/264/5 54/124/5 35/130/5
f 85/265/3 53/131/3 144/133/3
f 49/237/1 87/134/1 130/136/1
f 16/40/6 43/10/6 49/71/6
f 43/10/6 8/11/6 87/70/6
f 19/61/6 46/62/6 50/60/6
f 46/62/6 6/73/6 88/72/6
f 88/72/6 31/39/6 49/71/6
f 34/112/6 89/1/6 2/3/6
f 19/61/6 50/60/6 34/112/6
f 51/233/4 90/137/4 132/139/4
f 10/19/6 48/18/6 25/66/6
f 50/235/2 88/140/2 134/142/2
f 90/15/6 51/25/6 40/16/6
f 18/27/5 52/26/5 33/143/5
f 55/251/4 91/144/4 140/146/4
f 91/12/5 55/34/5 42/13/5
f 20/24/4 56/35/4 47/23/4
f 58/203/1 82/147/1 117/149/1
f 92/4/4 59/41/4 36/10/4
f 18/43/3 60/42/3 45/150/3
f 80/266/4 62/151/4 112/153/4
f 93/7/3 63/50/3 32/8/3
f 15/52/2 64/51/2 42/154/2
f 66/171/3 76/155/3 100/157/3
f 94/4/2 67/59/2 29/5/2
f 12/61/1 68/60/1 39/112/1
f 68/219/6 74/158/6 124/160/6
f 95/1/1 71/18/1 26/2/1
f 102/267/2 96/161/2 100/163/2
f 96/161/2 101/164/2 97/162/2
f 100/163/2 97/162/2 103/167/2
f 97/162/2 98/165/2 99/166/2
f 75/268/1 67/169/1 101/170/1
f 77/269/3 66/171/3 103/172/3
f 76/270/5 65/173/5 102/174/5
f 94/271/6 64/175/6 104/176/6
f 111/272/3 105/177/3 109/179/3
f 105/177/3 110/180/3 106/178/3
f 109/179/3 106/178/3 112/183/3
f 106/178/3 107/181/3 108/182/3
f 62/151/4 79/185/4 109/152/4
f 61/94/5 78/187/5 105/95/5
f 60/105/6 80/189/6 108/106/6
f 78/273/2 63/191/2 110/192/2
f 119/274/4 23/193/4 117/161/4
f 23/193/4 118/195/4 114/194/4
f 117/161/4 114/194/4 120/198/4
f 114/194/4 115/196/4 116/197/4
f 81/275/3 59/200/3 118/202/3
f 83/276/1 58/203/1 120/204/1
f 82/277/5 57/205/5 119/206/5
f 59/200/3 92/207/3 115/201/3
f 127/278/1 22/209/1 125/211/1
f 22/209/1 126/212/1 122/210/1
f 125/211/1 122/210/1 128/215/1
f 122/210/1 123/213/1 124/214/1
f 71/74/4 95/217/4 123/75/4
f 95/279/6 68/219/6 129/220/6
f 70/67/2 73/221/2 125/68/2
f 69/63/5 72/223/5 22/64/5
f 136/280/6 130/225/6 134/227/6
f 130/225/6 135/228/6 131/226/6
f 134/227/6 131/226/6 137/231/6
f 131/226/6 132/229/6 133/230/6
f 87/281/4 51/233/4 135/234/4
f 89/282/2 50/235/2 137/236/2
f 88/283/1 49/237/1 136/238/1
f 90/284/3 48/239/3 138/240/3
f 144/285/5 21/241/5 142/214/5
f 21/241/5 143/243/5 139/242/5
f 142/214/5 139/242/5 145/245/5
f 139/242/5 140/209/5 141/244/5
f 53/131/3 84/247/3 21/132/3
f 52/115/1 86/249/1 141/116/1
f 84/286/4 55/251/4 143/252/4
f 86/287/2 54/253/2 145/254/2
